<?xml version="1.0" standalone="no"?>
<!DOCTYPE svg PUBLIC "-//W3C//DTD SVG 20010904//EN"
 "http://www.w3.org/TR/2001/REC-SVG-20010904/DTD/svg10.dtd">
<svg version="1.0" xmlns="http://www.w3.org/2000/svg"
 width="638.000000pt" height="189.000000pt" viewBox="0 0 638.000000 189.000000"
 preserveAspectRatio="xMidYMid meet">

<g transform="translate(0.000000,189.000000) scale(0.100000,-0.100000)"
fill="#000000" stroke="none">
<path d="M1054 1600 c-140 -21 -267 -96 -356 -210 -79 -100 -118 -217 -118
-352 0 -154 57 -293 162 -399 110 -109 239 -163 393 -163 118 0 209 28 309 94
158 106 246 274 246 470 0 196 -88 364 -246 469 -115 77 -261 111 -390 91z
m284 -204 c86 -48 132 -124 132 -221 0 -68 -17 -110 -63 -162 l-36 -39 64
-150 c36 -82 65 -155 65 -161 0 -10 -33 -13 -130 -13 l-131 0 -59 126 -60 127
0 107 0 107 29 -5 c20 -3 35 2 50 17 41 41 15 81 -53 81 l-43 0 -7 -92 c-3
-50 -6 -176 -6 -280 l0 -188 -125 0 -125 0 0 391 0 390 223 -3 222 -3 53 -29z"/>
<path d="M2978 1405 c-37 -21 -61 -69 -53 -105 10 -44 58 -80 106 -80 103 0
154 91 91 161 -34 38 -100 49 -144 24z"/>
<path d="M4303 1410 c-34 -14 -65 -69 -58 -105 8 -46 57 -85 106 -85 103 0
154 90 91 161 -21 24 -38 32 -72 35 -25 2 -55 0 -67 -6z"/>
<path d="M5318 1403 c-57 -35 -65 -109 -17 -154 86 -80 236 10 184 110 -29 57
-111 78 -167 44z"/>
<path d="M2198 1374 c-5 -4 -8 -180 -8 -391 l0 -383 125 0 125 0 2 283 3 282
50 -3 c70 -5 103 -44 72 -86 -10 -14 -31 -21 -79 -25 -5 -1 -8 -47 -8 -103 l0
-103 57 -122 58 -122 132 -1 132 0 -31 72 c-16 40 -47 111 -68 159 l-38 87 34
33 c36 35 74 121 74 168 0 48 -28 125 -60 163 -17 20 -56 49 -88 65 -56 27
-61 27 -267 31 -115 2 -213 0 -217 -4z"/>
<path d="M4829 1180 c-69 -12 -126 -46 -162 -96 -51 -73 -55 -94 -56 -296 l-1
-188 110 0 110 0 0 164 c0 145 2 166 19 187 16 21 22 22 45 11 l26 -12 0 -175
0 -175 116 0 116 0 -4 198 c-3 194 -3 198 -32 255 -41 84 -89 113 -216 131
-14 2 -46 0 -71 -4z"/>
<path d="M3415 1161 c-50 -22 -101 -79 -115 -128 -7 -24 -10 -112 -8 -233 l3
-195 108 -3 107 -3 0 170 c0 141 3 172 16 185 19 20 29 20 48 0 13 -13 16 -44
16 -185 l0 -169 115 0 115 0 2 176 c3 152 5 178 20 187 12 8 21 7 32 -2 14
-11 16 -41 16 -187 l0 -174 110 0 110 0 0 211 c0 209 0 212 -26 260 -36 65
-90 101 -159 107 -76 6 -117 -4 -174 -42 -48 -33 -50 -33 -67 -15 -52 57 -187
78 -269 40z"/>
<path d="M2930 880 l0 -281 112 3 112 3 1 275 0 275 -112 3 -113 3 0 -281z"/>
<path d="M4250 880 l0 -280 110 0 110 0 0 280 0 280 -110 0 -110 0 0 -280z"/>
<path d="M5270 880 l0 -280 115 0 115 0 0 280 0 280 -115 0 -115 0 0 -280z"/>
<path d="M4866 534 c-19 -18 -19 -20 -6 -45 12 -21 40 -25 58 -7 18 18 14 46
-7 58 -25 13 -27 13 -45 -6z"/>
<path d="M4173 523 c-47 -9 -63 -47 -63 -149 l0 -94 35 0 35 0 0 90 c0 75 3
90 15 90 13 0 15 -7 9 -36 -5 -26 -3 -39 7 -45 11 -7 12 -12 2 -29 -7 -11 -13
-31 -13 -45 0 -20 5 -25 25 -25 31 0 75 41 75 70 0 12 -5 31 -12 43 -6 12 -11
38 -9 57 3 53 -43 84 -106 73z"/>
<path d="M4730 426 c0 -119 13 -146 70 -146 25 0 30 4 30 25 0 14 -7 28 -15
31 -9 4 -15 19 -15 35 0 19 5 29 15 29 9 0 15 9 15 25 0 15 -6 25 -14 25 -10
0 -16 13 -18 38 -3 34 -6 37 -35 40 l-33 3 0 -105z"/>
<path d="M4381 442 c-82 -41 -54 -162 37 -162 39 0 92 45 92 79 0 40 -20 72
-55 86 -42 18 -33 18 -74 -3z m57 -74 c-2 -13 -10 -23 -18 -23 -8 0 -16 10
-18 23 -3 17 2 22 18 22 16 0 21 -5 18 -22z"/>
<path d="M5020 453 c-63 -22 -83 -113 -34 -152 15 -12 37 -21 50 -21 20 0 24
5 24 29 0 20 -6 30 -20 34 -12 3 -20 14 -20 27 0 16 5 21 23 18 21 -3 22 -8
25 -90 l3 -88 35 0 36 0 -4 95 c-3 85 -5 97 -28 119 -26 25 -65 37 -90 29z"/>
<path d="M5386 429 c-35 -41 -34 -83 3 -120 21 -21 39 -29 65 -29 19 0 38 4
41 10 10 16 -15 52 -32 46 -38 -15 -61 54 -24 73 14 8 22 7 31 -4 10 -12 9
-15 -4 -15 -9 0 -16 -7 -16 -15 0 -11 12 -15 50 -15 43 0 50 3 50 19 0 11 -12
33 -26 50 -21 26 -33 31 -69 31 -36 0 -48 -5 -69 -31z"/>
<path d="M4540 385 c0 -80 19 -105 79 -105 57 0 81 33 81 111 l0 59 -35 0 -35
0 0 -56 c0 -73 -24 -70 -28 4 -3 50 -4 52 -33 52 l-29 0 0 -65z"/>
<path d="M4860 365 l0 -85 30 0 30 0 0 85 0 85 -30 0 -30 0 0 -85z"/>
<path d="M5170 381 c0 -61 3 -72 22 -85 30 -21 81 -20 109 3 19 15 24 30 27
85 l4 66 -36 0 -36 0 0 -56 c0 -73 -24 -70 -28 4 -3 50 -4 52 -33 52 l-29 0 0
-69z"/>
</g>
</svg>
