<svg version="1.1" id="Layer_1" xmlns="http://www.w3.org/2000/svg" xmlns:xlink="http://www.w3.org/1999/xlink" x="0px" y="0px"
	 width="100%" viewBox="0 0 638 189" enable-background="new 0 0 638 189" xml:space="preserve">
<path fill="#000000" opacity="1.000000" stroke="none" 
	d="
M465.000000,190.000000 
	C310.046692,190.000000 155.593399,190.000000 1.070048,190.000000 
	C1.070048,127.065804 1.070048,64.131516 1.070048,1.098611 
	C213.666641,1.098611 426.333313,1.098611 638.973633,1.098611 
	C638.973633,64.073196 638.973633,127.036606 638.973633,190.000000 
	C581.131531,190.000000 523.315796,190.000000 465.000000,190.000000 
M220.029022,52.589863 
	C220.023254,53.053902 220.017471,53.517944 219.967773,54.470055 
	C219.967773,54.470055 220.010132,54.958260 219.198853,55.316345 
	C219.133652,76.245056 219.059341,97.173759 219.045853,118.102509 
	C219.045425,118.751060 219.675262,119.400024 219.960083,120.519249 
	C219.960083,120.519249 219.996872,120.991043 220.022430,121.901711 
	C220.022430,124.855957 220.022430,127.810204 220.022430,131.525543 
	C228.575241,131.525543 236.717972,131.545761 244.859558,131.459229 
	C245.224121,131.455353 245.578384,130.482391 246.031845,129.033020 
	C245.996384,120.737488 245.960922,112.441963 245.970215,103.191734 
	C245.970215,93.607628 245.970215,84.023521 245.970215,73.868095 
	C250.946533,75.356033 257.451508,72.929199 258.344391,78.904457 
	C259.146912,84.275169 252.827774,83.692032 249.230270,84.890724 
	C248.008362,104.120819 251.489151,117.740471 261.669434,131.212631 
	C269.233856,131.134201 276.799103,131.094208 284.361572,130.927032 
	C285.270782,130.906921 286.164795,130.197449 287.036591,129.072067 
	C283.699249,121.302818 280.523407,113.458611 276.964813,105.792046 
	C274.780518,101.086159 274.504578,97.487679 278.804993,93.436333 
	C283.518372,88.995941 285.651276,82.640335 284.800995,76.215294 
	C282.902405,61.868965 270.614014,51.865974 255.627335,51.166653 
	C244.146332,50.887375 232.665573,50.593781 221.183167,50.395748 
	C220.826935,50.389606 220.453629,51.373650 220.029022,52.589863 
M487.381104,145.573715 
	C487.381104,151.033066 487.381104,156.492416 487.381104,162.750565 
	C489.392853,162.392899 491.829559,162.559753 493.477783,161.500107 
	C495.171417,160.411255 493.757935,146.149597 492.427368,143.267014 
	C492.794067,142.528717 493.532318,141.748627 493.454895,141.060257 
	C493.255127,139.283066 493.131531,137.196213 492.113007,135.926453 
	C491.513947,135.179581 488.402496,135.168213 487.932617,135.857056 
	C486.871918,137.412201 486.453003,139.593643 486.360779,141.548035 
	C486.307892,142.668854 487.405426,143.843964 487.381104,145.573715 
M421.400513,162.486649 
	C423.007385,162.320160 424.646637,162.301697 426.214752,161.958237 
	C430.238312,161.077011 432.631042,156.080521 431.269226,152.270508 
	C430.505920,150.135025 430.111511,147.775330 430.047424,145.502655 
	C429.934143,141.484756 426.271912,137.482361 421.844543,136.986130 
	C417.041718,136.447830 412.353760,139.201172 412.125854,143.342377 
	C411.773834,149.739075 412.033081,156.169418 412.033081,163.064072 
	C414.815063,162.644058 416.889221,162.330917 419.638824,162.033813 
	C420.087921,161.999374 420.536987,161.964951 421.400513,162.486649 
M294.855499,130.975922 
	C301.931244,130.961212 309.006989,130.946503 316.756531,130.436676 
	C316.833252,112.361427 316.920258,94.286194 316.948364,76.210869 
	C316.949463,75.498985 316.388428,74.786232 315.142303,74.019852 
	C308.077118,74.026505 301.011963,74.033150 293.218597,74.484650 
	C293.141632,92.595505 293.054230,110.706345 293.026917,128.817276 
	C293.025879,129.520828 293.601105,130.225250 294.855499,130.975922 
M425.237793,74.507278 
	C425.162750,92.594070 425.077484,110.680847 425.050201,128.767715 
	C425.049103,129.483093 425.599731,130.199295 426.842316,130.970978 
	C433.952179,130.931366 441.062012,130.891754 448.789093,130.321732 
	C448.851440,112.287674 448.923706,94.253616 448.939056,76.219528 
	C448.939667,75.508240 448.397156,74.796486 447.158508,74.029160 
	C440.087708,74.032898 433.016876,74.036644 425.237793,74.507278 
M551.000122,130.970154 
	C551.333435,130.165939 551.955017,129.362640 551.957581,128.557373 
	C552.012817,111.198120 552.012207,93.838593 551.956299,76.479347 
	C551.953674,75.665253 551.338806,74.853134 550.543030,73.472214 
	C543.096375,73.639465 535.649719,73.806717 527.771240,73.294060 
	C527.514160,73.967651 527.034058,74.640747 527.032593,75.314926 
	C526.993042,93.031944 526.991028,110.749115 527.042419,128.466064 
	C527.044861,129.293701 527.599731,130.119736 528.846802,130.981262 
	C535.943909,130.964035 543.041077,130.946808 551.000122,130.970154 
M461.198822,95.385864 
	C461.133453,106.065018 461.047668,116.744156 461.042236,127.423340 
	C461.041809,128.260880 461.601715,129.098724 462.850037,129.974350 
	C469.612640,129.956696 476.375214,129.939041 483.986786,129.943390 
	C484.309174,128.473511 484.889099,127.007668 484.912170,125.533096 
	C485.061157,116.008217 485.088593,106.481430 485.692505,96.614845 
	C487.553131,92.889702 489.704773,93.091461 492.046478,97.061363 
	C492.025085,106.858124 491.973053,116.655045 492.022827,126.451447 
	C492.028748,127.616791 492.590393,128.779312 493.844116,129.982269 
	C500.947052,129.961700 508.049957,129.941116 516.010071,129.951782 
	C516.339966,128.804733 516.948669,127.659431 516.955872,126.510353 
	C517.017456,116.707047 516.969849,106.903046 516.903259,96.306671 
	C514.636292,90.694130 513.475586,84.200127 509.859833,79.662308 
	C503.394989,71.548874 493.880341,71.233131 483.875488,71.671585 
	C472.947998,72.150475 462.320282,84.978821 461.198822,95.385864 
M383.877594,100.438797 
	C384.425171,98.412003 384.972748,96.385208 385.520325,94.358414 
	C387.046387,95.297821 388.572449,96.237228 390.096222,98.080833 
	C390.096680,102.234879 390.013824,106.390991 390.116394,110.542511 
	C390.283203,117.293228 390.571320,124.040947 391.761108,130.921432 
	C398.552582,130.906494 405.344086,130.891556 412.795319,130.382172 
	C412.856873,117.600838 412.918427,104.819504 412.979156,91.256409 
	C411.727966,82.922142 407.509521,76.513947 399.682037,73.348511 
	C389.190399,69.105705 379.619507,71.847679 371.286896,78.966309 
	C364.837921,73.311989 357.902802,70.761955 349.653351,71.468559 
	C339.411743,72.345795 328.385254,83.250305 329.208588,92.451851 
	C329.144501,104.152924 329.049255,115.854088 329.082123,127.554893 
	C329.084473,128.388062 330.026733,129.218597 331.245605,130.124863 
	C338.214111,130.380447 345.182587,130.636047 352.843048,130.421219 
	C352.894653,121.048027 352.893890,111.674034 353.038696,102.302284 
	C353.070648,100.233757 353.618225,98.173203 354.220551,95.585258 
	C354.846680,94.881813 355.472778,94.178360 356.122162,93.448776 
	C356.986969,94.377083 357.724579,95.168823 358.925262,96.802299 
	C358.946503,106.690628 358.929291,116.579338 359.030090,126.466858 
	C359.045349,127.964401 359.609467,129.456360 360.866150,130.994507 
	C367.001617,130.998993 373.137695,130.955139 379.272247,131.033112 
	C381.540649,131.061935 383.297516,130.764526 383.846222,127.589630 
	C383.872192,118.780342 383.898163,109.971046 383.877594,100.438797 
M171.001450,87.479927 
	C171.648865,66.332901 162.901718,49.723717 145.417999,38.383549 
	C128.233215,27.237286 109.807892,25.490076 90.621834,34.058407 
	C79.352821,39.091053 70.649605,47.219788 65.404518,57.691257 
	C55.555519,77.354126 55.171814,97.522552 66.900169,117.099709 
	C77.427063,134.671387 93.754272,142.313202 113.253334,143.872482 
	C121.148819,144.503876 128.694489,141.627075 136.348602,139.066757 
	C155.570679,132.636902 171.726471,107.724823 171.001450,87.479927 
M307.482513,47.742107 
	C302.353729,45.858036 298.279022,47.987373 295.231171,51.739277 
	C292.492981,55.109997 292.002899,59.122551 294.071289,63.352333 
	C296.572388,68.467148 301.494324,68.650909 305.815399,68.674232 
	C310.919250,68.701790 315.314636,66.450928 316.686707,60.599876 
	C317.632324,56.567413 316.467529,53.334919 313.419647,50.838821 
	C311.916412,49.607719 309.970306,48.917400 307.482513,47.742107 
M442.803345,67.613701 
	C448.786835,64.302429 450.286041,59.486183 447.315979,53.618137 
	C444.707153,48.463902 440.117889,47.789001 435.114258,47.986515 
	C429.831146,48.195057 425.238953,52.629505 424.974457,57.690399 
	C424.630798,64.267296 427.241852,67.673248 433.805450,68.434563 
	C436.505280,68.747719 439.313965,68.122375 442.803345,67.613701 
M551.681885,56.225971 
	C548.169067,50.515343 543.553711,46.132526 536.420105,48.134106 
	C533.351379,48.995148 529.726624,51.722298 528.553345,54.522850 
	C527.067139,58.070221 526.666748,63.035580 530.598328,65.981407 
	C534.965332,69.253548 540.405273,69.863670 545.152344,67.590408 
	C549.098816,65.700554 552.127930,62.046562 551.681885,56.225971 
M511.441833,170.006195 
	C514.071899,170.149796 516.188538,169.587280 515.977356,166.317886 
	C515.674011,161.620056 515.568115,156.883087 514.845886,152.245697 
	C514.038452,147.061203 508.642303,143.348633 503.681946,144.022171 
	C498.720367,144.695877 496.593201,148.511444 497.002380,156.003555 
	C497.236877,160.297775 500.313751,162.442169 506.258331,162.476471 
	C506.712250,162.479095 507.165436,162.606171 507.369965,162.637390 
	C509.348541,164.880539 505.669098,169.215332 511.441833,170.006195 
M441.723358,145.022858 
	C437.555695,144.432831 435.304932,147.177414 434.414001,150.376938 
	C433.411377,153.977493 433.028656,158.045547 436.440948,161.024628 
	C438.575500,162.888199 447.117828,163.192917 449.114777,160.976593 
	C451.386047,158.455856 453.735535,155.703278 452.137360,151.488388 
	C450.383148,146.862000 447.843292,144.117676 441.723358,145.022858 
M550.890991,157.994553 
	C550.475220,157.173111 550.059509,156.351669 549.496887,155.239990 
	C551.990356,154.754868 554.157715,154.333206 556.308167,153.914841 
	C555.306824,146.012909 552.143372,143.563736 544.739929,143.940186 
	C540.443665,144.158646 538.006165,146.650482 537.616516,150.134613 
	C537.241516,153.486832 537.438049,158.277527 539.480896,160.159271 
	C541.762573,162.261002 546.398560,161.858551 550.040283,162.288452 
	C550.234863,162.311401 550.711182,159.947540 550.890991,157.994553 
M468.330750,145.015427 
	C464.699738,144.440765 463.610229,146.184067 463.966919,149.556229 
	C464.136414,151.159119 463.853577,152.809830 463.775696,154.438889 
	C463.159546,154.417847 462.543396,154.396790 461.927246,154.375748 
	C461.927246,151.792542 462.495789,149.045532 461.808594,146.660309 
	C460.387024,141.725998 457.534851,145.789352 454.959595,145.600281 
	C454.959595,149.861450 454.846832,153.679779 455.026581,157.484314 
	C455.082336,158.664795 455.611786,160.195648 456.470490,160.904633 
	C461.785980,165.293335 469.615356,162.597275 471.169617,155.850769 
	C471.719757,153.462891 472.069397,150.918106 471.841980,148.508057 
	C471.726410,147.283310 470.126556,146.198639 468.330750,145.015427 
M518.006775,155.249817 
	C518.053406,160.170486 520.138245,162.436874 524.954529,162.802643 
	C529.836304,163.173370 533.436951,160.741196 533.857666,156.295624 
	C534.195068,152.730423 533.925903,149.107849 533.925903,145.317627 
	C531.438721,145.317627 529.537048,145.317627 527.342651,145.317627 
	C527.090698,148.531158 526.859375,151.481781 526.628052,154.432404 
	C526.204102,154.415466 525.780151,154.398529 525.356262,154.381592 
	C525.237793,153.018784 525.043213,151.657639 525.013733,150.292908 
	C524.864319,143.388336 524.877136,143.386520 518.006226,146.057556 
	C518.006226,148.713654 518.006226,151.520126 518.006775,155.249817 
M478.189209,162.378433 
	C480.307587,162.119644 483.471802,162.622635 484.329285,161.445419 
	C486.183777,158.899414 484.753265,156.572998 481.671539,155.364822 
	C481.194763,155.177917 480.837738,152.957458 481.148773,152.747116 
	C486.313721,149.253983 485.572052,145.931503 481.115601,142.528107 
	C480.939178,142.393387 481.009399,141.892075 481.019501,141.563248 
	C481.178467,136.374863 478.098938,136.613800 473.997101,137.501663 
	C473.997101,144.266632 473.760529,150.877029 474.171051,157.446991 
	C474.268036,158.999252 476.541077,160.415543 478.189209,162.378433 
z"/>
<path fill="#231E1C" opacity="1.000000" stroke="none" 
	d="
M171.001663,87.963951 
	C171.726471,107.724823 155.570679,132.636902 136.348602,139.066757 
	C128.694489,141.627075 121.148819,144.503876 113.253334,143.872482 
	C93.754272,142.313202 77.427063,134.671387 66.900169,117.099709 
	C55.171814,97.522552 55.555519,77.354126 65.404518,57.691257 
	C70.649605,47.219788 79.352821,39.091053 90.621834,34.058407 
	C109.807892,25.490076 128.233215,27.237286 145.417999,38.383549 
	C162.901718,49.723717 171.648865,66.332901 171.001663,87.963951 
M85.533142,124.680695 
	C89.005501,124.782852 92.483055,125.053253 95.948936,124.946007 
	C100.631462,124.801109 105.305008,124.365990 109.978424,123.353813 
	C109.981194,122.886093 109.983955,122.418381 110.037163,121.020760 
	C110.011032,103.354439 109.984901,85.688118 110.785782,67.990211 
	C113.224098,68.331345 115.815247,68.275047 118.053734,69.135834 
	C119.939049,69.860817 122.364555,71.400696 122.798576,73.042961 
	C123.215363,74.620018 121.824669,77.279633 120.411469,78.566750 
	C118.974152,79.875816 116.539833,80.090210 113.997154,80.973206 
	C113.997154,85.569290 113.850433,90.374710 114.053574,95.165298 
	C114.170685,97.927132 114.321884,100.892548 115.383011,103.370026 
	C118.309029,110.201523 121.722206,116.824364 125.226189,124.409462 
	C133.328262,124.597763 141.430206,124.796738 149.533356,124.892776 
	C149.685410,124.894577 149.851929,123.675850 149.861954,122.289818 
	C146.201157,113.473831 142.620651,104.623123 138.831696,95.862564 
	C137.662766,93.159836 137.805557,91.514442 140.402496,89.597023 
	C145.989532,85.471878 149.014999,74.289536 147.165710,67.593185 
	C143.859085,55.619831 135.644012,49.663361 123.408356,47.172207 
	C110.944496,47.147442 98.480637,47.122677 85.194077,47.385349 
	C85.186974,72.895294 85.179863,98.405243 85.533142,124.680695 
z"/>
<path fill="#201B19" opacity="1.000000" stroke="none" 
	d="
M219.996872,120.991043 
	C219.996872,120.991043 219.960083,120.519249 220.038239,119.814774 
	C220.080963,97.726288 220.045547,76.342278 220.010132,54.958260 
	C220.010132,54.958260 219.967773,54.470055 220.241364,54.102753 
	C220.696655,53.213322 220.878357,52.691196 221.519852,52.096237 
	C233.299744,52.010628 244.619858,51.997849 255.939972,51.985069 
	C270.614014,51.865974 282.902405,61.868965 284.800995,76.215294 
	C285.651276,82.640335 283.518372,88.995941 278.804993,93.436333 
	C274.504578,97.487679 274.780518,101.086159 276.964813,105.792046 
	C280.523407,113.458611 283.699249,121.302818 286.580505,129.502319 
	C281.048981,129.961868 275.969482,129.878372 270.899506,130.060577 
	C267.578705,130.179932 264.271729,130.683899 260.958557,131.015610 
	C251.489151,117.740471 248.008362,104.120819 249.230270,84.890724 
	C252.827774,83.692032 259.146912,84.275169 258.344391,78.904457 
	C257.451508,72.929199 250.946533,75.356033 245.970215,73.868095 
	C245.970215,84.023521 245.970215,93.607628 245.605606,103.901711 
	C245.076569,113.070015 244.912140,121.528351 244.295197,129.968262 
	C236.323349,129.949860 228.804031,129.949860 221.698746,129.949860 
	C221.013306,126.341690 220.505081,123.666367 219.996872,120.991043 
z"/>
<path fill="#201B19" opacity="1.000000" stroke="none" 
	d="
M412.135559,130.876617 
	C405.344086,130.891556 398.552582,130.906494 391.320038,130.408249 
	C390.892242,123.068642 391.003601,116.240479 390.882019,109.416458 
	C390.809296,105.333160 390.371948,101.256363 390.098511,97.176643 
	C388.572449,96.237228 387.046387,95.297821 385.520325,94.358414 
	C384.972748,96.385208 384.425171,98.412003 383.500153,100.956734 
	C383.091980,110.280739 383.061249,119.086800 383.030518,127.892868 
	C383.297516,130.764526 381.540649,131.061935 379.272247,131.033112 
	C373.137695,130.955139 367.001617,130.998993 360.455597,130.510986 
	C360.038849,120.205269 360.100067,110.382072 359.956726,100.561859 
	C359.934204,99.021156 358.983582,97.493988 358.462158,95.960556 
	C357.724579,95.168823 356.986969,94.377083 356.122162,93.448776 
	C355.472778,94.178360 354.846680,94.881813 353.660065,95.851906 
	C352.735382,97.110779 352.057922,98.102142 352.055176,99.095375 
	C352.025665,109.693954 352.103058,120.292831 352.151123,130.891632 
	C345.182587,130.636047 338.214111,130.380447 330.756897,129.630112 
	C330.173340,116.782555 330.078461,104.429749 329.983582,92.076942 
	C328.385254,83.250305 339.411743,72.345795 349.653351,71.468559 
	C357.902802,70.761955 364.837921,73.311989 371.286896,78.966309 
	C379.619507,71.847679 389.190399,69.105705 399.682037,73.348511 
	C407.509521,76.513947 411.727966,82.922142 412.627014,91.882446 
	C412.228394,105.297867 412.181976,118.087242 412.135559,130.876617 
z"/>
<path fill="#201B19" opacity="1.000000" stroke="none" 
	d="
M515.152893,129.920547 
	C508.049957,129.941116 500.947052,129.961700 493.429779,129.501190 
	C493.020355,119.580963 493.067963,110.141426 492.986969,100.703003 
	C492.973907,99.180298 492.388397,97.662506 492.067535,96.142441 
	C489.704773,93.091461 487.553131,92.889702 485.077881,97.043129 
	C484.325775,104.885956 484.261658,112.302917 484.018066,119.713974 
	C483.906036,123.122406 483.442139,126.519272 483.137817,129.921387 
	C476.375214,129.939041 469.612640,129.956696 462.421631,129.493073 
	C461.993744,117.683464 461.994263,106.355110 461.994751,95.026764 
	C462.320282,84.978821 472.947998,72.150475 483.875488,71.671585 
	C493.880341,71.233131 503.394989,71.548874 509.859833,79.662308 
	C513.475586,84.200127 514.636292,90.694130 516.529175,96.868347 
	C516.101501,104.531471 516.130615,111.634895 515.960571,118.733551 
	C515.871094,122.466858 515.433411,126.191818 515.152893,129.920547 
z"/>
<path fill="#1F1A17" opacity="1.000000" stroke="none" 
	d="
M528.203064,73.973969 
	C535.649719,73.806717 543.096375,73.639465 550.763672,74.222038 
	C550.986572,91.709801 551.016235,108.447838 550.953491,125.185539 
	C550.946289,127.101212 550.422424,129.014954 550.138184,130.929596 
	C543.041077,130.946808 535.943909,130.964035 528.422791,130.501099 
	C528.066895,111.338623 528.135010,92.656296 528.203064,73.973969 
z"/>
<path fill="#1F1A17" opacity="1.000000" stroke="none" 
	d="
M448.171875,130.852142 
	C441.062012,130.891754 433.952179,130.931366 426.411194,130.482925 
	C425.968750,111.343376 425.957428,92.691879 425.946106,74.040382 
	C433.016876,74.036644 440.087708,74.032898 447.596313,74.517654 
	C448.080017,93.621483 448.125946,112.236809 448.171875,130.852142 
z"/>
<path fill="#1F1A17" opacity="1.000000" stroke="none" 
	d="
M316.082733,130.931778 
	C309.006989,130.946503 301.931244,130.961212 294.425262,130.491241 
	C293.978943,111.350983 293.962860,92.695396 293.946777,74.039803 
	C301.011963,74.033150 308.077118,74.026505 315.585815,74.508453 
	C316.047089,93.641960 316.064911,112.286873 316.082733,130.931778 
z"/>
<path fill="#241F1D" opacity="1.000000" stroke="none" 
	d="
M307.853546,47.862247 
	C309.970306,48.917400 311.916412,49.607719 313.419647,50.838821 
	C316.467529,53.334919 317.632324,56.567413 316.686707,60.599876 
	C315.314636,66.450928 310.919250,68.701790 305.815399,68.674232 
	C301.494324,68.650909 296.572388,68.467148 294.071289,63.352333 
	C292.002899,59.122551 292.492981,55.109997 295.231171,51.739277 
	C298.279022,47.987373 302.353729,45.858036 307.853546,47.862247 
z"/>
<path fill="#241F1D" opacity="1.000000" stroke="none" 
	d="
M442.438232,67.768806 
	C439.313965,68.122375 436.505280,68.747719 433.805450,68.434563 
	C427.241852,67.673248 424.630798,64.267296 424.974457,57.690399 
	C425.238953,52.629505 429.831146,48.195057 435.114258,47.986515 
	C440.117889,47.789001 444.707153,48.463902 447.315979,53.618137 
	C450.286041,59.486183 448.786835,64.302429 442.438232,67.768806 
z"/>
<path fill="#241F1D" opacity="1.000000" stroke="none" 
	d="
M551.822144,56.584450 
	C552.127930,62.046562 549.098816,65.700554 545.152344,67.590408 
	C540.405273,69.863670 534.965332,69.253548 530.598328,65.981407 
	C526.666748,63.035580 527.067139,58.070221 528.553345,54.522850 
	C529.726624,51.722298 533.351379,48.995148 536.420105,48.134106 
	C543.553711,46.132526 548.169067,50.515343 551.822144,56.584450 
z"/>
<path fill="#241F1D" opacity="1.000000" stroke="none" 
	d="
M418.963348,162.017776 
	C416.889221,162.330917 414.815063,162.644058 412.033081,163.064072 
	C412.033081,156.169418 411.773834,149.739075 412.125854,143.342377 
	C412.353760,139.201172 417.041718,136.447830 421.844543,136.986130 
	C426.271912,137.482361 429.934143,141.484756 430.047424,145.502655 
	C430.111511,147.775330 430.505920,150.135025 431.269226,152.270508 
	C432.631042,156.080521 430.238312,161.077011 426.214752,161.958237 
	C424.646637,162.301697 423.007385,162.320160 421.186890,161.787598 
	C421.157593,155.677963 421.434052,150.257645 420.767639,144.936829 
	C420.166229,144.987518 419.564789,145.038223 418.963348,145.088928 
	C418.963348,150.731873 418.963348,156.374832 418.963348,162.017776 
z"/>
<path fill="#241F1D" opacity="1.000000" stroke="none" 
	d="
M511.012268,169.994171 
	C505.669098,169.215332 509.348541,164.880539 507.369965,162.637390 
	C507.165436,162.606171 506.712250,162.479095 506.258331,162.476471 
	C500.313751,162.442169 497.236877,160.297775 497.002380,156.003555 
	C496.593201,148.511444 498.720367,144.695877 503.681946,144.022171 
	C508.642303,143.348633 514.038452,147.061203 514.845886,152.245697 
	C515.568115,156.883087 515.674011,161.620056 515.977356,166.317886 
	C516.188538,169.587280 514.071899,170.149796 511.012268,169.994171 
z"/>
<path fill="#282422" opacity="1.000000" stroke="none" 
	d="
M442.149780,145.031616 
	C447.843292,144.117676 450.383148,146.862000 452.137360,151.488388 
	C453.735535,155.703278 451.386047,158.455856 449.114777,160.976593 
	C447.117828,163.192917 438.575500,162.888199 436.440948,161.024628 
	C433.028656,158.045547 433.411377,153.977493 434.414001,150.376938 
	C435.304932,147.177414 437.555695,144.432831 442.149780,145.031616 
z"/>
<path fill="#282422" opacity="1.000000" stroke="none" 
	d="
M550.973633,158.344666 
	C550.711182,159.947540 550.234863,162.311401 550.040283,162.288452 
	C546.398560,161.858551 541.762573,162.261002 539.480896,160.159271 
	C537.438049,158.277527 537.241516,153.486832 537.616516,150.134613 
	C538.006165,146.650482 540.443665,144.158646 544.739929,143.940186 
	C552.143372,143.563736 555.306824,146.012909 556.308167,153.914841 
	C554.157715,154.333206 551.990356,154.754868 549.496887,155.239990 
	C550.059509,156.351669 550.475220,157.173111 550.973633,158.344666 
z"/>
<path fill="#231E1C" opacity="1.000000" stroke="none" 
	d="
M468.764221,145.033035 
	C470.126556,146.198639 471.726410,147.283310 471.841980,148.508057 
	C472.069397,150.918106 471.719757,153.462891 471.169617,155.850769 
	C469.615356,162.597275 461.785980,165.293335 456.470490,160.904633 
	C455.611786,160.195648 455.082336,158.664795 455.026581,157.484314 
	C454.846832,153.679779 454.959595,149.861450 454.959595,145.600281 
	C457.534851,145.789352 460.387024,141.725998 461.808594,146.660309 
	C462.495789,149.045532 461.927246,151.792542 461.927246,154.375748 
	C462.543396,154.396790 463.159546,154.417847 463.775696,154.438889 
	C463.853577,152.809830 464.136414,151.159119 463.966919,149.556229 
	C463.610229,146.184067 464.699738,144.440765 468.764221,145.033035 
z"/>
<path fill="#241F1D" opacity="1.000000" stroke="none" 
	d="
M518.006470,154.788208 
	C518.006226,151.520126 518.006226,148.713654 518.006226,146.057556 
	C524.877136,143.386520 524.864319,143.388336 525.013733,150.292908 
	C525.043213,151.657639 525.237793,153.018784 525.356262,154.381592 
	C525.780151,154.398529 526.204102,154.415466 526.628052,154.432404 
	C526.859375,151.481781 527.090698,148.531158 527.342651,145.317627 
	C529.537048,145.317627 531.438721,145.317627 533.925903,145.317627 
	C533.925903,149.107849 534.195068,152.730423 533.857666,156.295624 
	C533.436951,160.741196 529.836304,163.173370 524.954529,162.802643 
	C520.138245,162.436874 518.053406,160.170486 518.006470,154.788208 
z"/>
<path fill="#231E1C" opacity="1.000000" stroke="none" 
	d="
M478.001129,162.136414 
	C476.541077,160.415543 474.268036,158.999252 474.171051,157.446991 
	C473.760529,150.877029 473.997101,144.266632 473.997101,137.501663 
	C478.098938,136.613800 481.178467,136.374863 481.019501,141.563248 
	C481.009399,141.892075 480.939178,142.393387 481.115601,142.528107 
	C485.572052,145.931503 486.313721,149.253983 481.148773,152.747116 
	C480.837738,152.957458 481.194763,155.177917 481.671539,155.364822 
	C484.753265,156.572998 486.183777,158.899414 484.329285,161.445419 
	C483.471802,162.622635 480.307587,162.119644 478.001129,162.136414 
z"/>
<path fill="#201B19" opacity="1.000000" stroke="none" 
	d="
M492.184967,143.926193 
	C493.757935,146.149597 495.171417,160.411255 493.477783,161.500107 
	C491.829559,162.559753 489.392853,162.392899 487.381104,162.750565 
	C487.381104,156.492416 487.381104,151.033066 487.972961,145.401855 
	C489.771545,144.795410 490.978271,144.360809 492.184967,143.926193 
z"/>
<path fill="#FAF9F7" opacity="1.000000" stroke="none" 
	d="
M219.604492,55.137302 
	C220.045547,76.342278 220.080963,97.726288 220.063828,119.579552 
	C219.675262,119.400024 219.045425,118.751060 219.045853,118.102509 
	C219.059341,97.173759 219.133652,76.245056 219.604492,55.137302 
z"/>
<path fill="#282422" opacity="1.000000" stroke="none" 
	d="
M492.306152,143.596603 
	C490.978271,144.360809 489.771545,144.795410 488.274963,145.112320 
	C487.405426,143.843964 486.307892,142.668854 486.360779,141.548035 
	C486.453003,139.593643 486.871918,137.412201 487.932617,135.857056 
	C488.402496,135.168213 491.513947,135.179581 492.113007,135.926453 
	C493.131531,137.196213 493.255127,139.283066 493.454895,141.060257 
	C493.532318,141.748627 492.794067,142.528717 492.306152,143.596603 
z"/>
<path fill="#C2BFC0" opacity="1.000000" stroke="none" 
	d="
M550.569153,130.949875 
	C550.422424,129.014954 550.946289,127.101212 550.953491,125.185539 
	C551.016235,108.447838 550.986572,91.709801 550.996704,74.505981 
	C551.338806,74.853134 551.953674,75.665253 551.956299,76.479347 
	C552.012207,93.838593 552.012817,111.198120 551.957581,128.557373 
	C551.955017,129.362640 551.333435,130.165939 550.569153,130.949875 
z"/>
<path fill="#E0DEDC" opacity="1.000000" stroke="none" 
	d="
M527.987183,73.634018 
	C528.135010,92.656296 528.066895,111.338623 527.947998,130.483734 
	C527.599731,130.119736 527.044861,129.293701 527.042419,128.466064 
	C526.991028,110.749115 526.993042,93.031944 527.032593,75.314926 
	C527.034058,74.640747 527.514160,73.967651 527.987183,73.634018 
z"/>
<path fill="#686463" opacity="1.000000" stroke="none" 
	d="
M448.480469,130.586945 
	C448.125946,112.236809 448.080017,93.621483 448.070862,74.545547 
	C448.397156,74.796486 448.939667,75.508240 448.939056,76.219528 
	C448.923706,94.253616 448.851440,112.287674 448.480469,130.586945 
z"/>
<path fill="#686463" opacity="1.000000" stroke="none" 
	d="
M293.582703,74.262222 
	C293.962860,92.695396 293.978943,111.350983 293.951416,130.467926 
	C293.601105,130.225250 293.025879,129.520828 293.026917,128.817276 
	C293.054230,110.706345 293.141632,92.595505 293.582703,74.262222 
z"/>
<path fill="#5D5957" opacity="1.000000" stroke="none" 
	d="
M316.419617,130.684235 
	C316.064911,112.286873 316.047089,93.641960 316.059296,74.535469 
	C316.388428,74.786232 316.949463,75.498985 316.948364,76.210869 
	C316.920258,94.286194 316.833252,112.361427 316.419617,130.684235 
z"/>
<path fill="#686463" opacity="1.000000" stroke="none" 
	d="
M425.591949,74.273834 
	C425.957428,92.691879 425.968750,111.343376 425.936676,130.454987 
	C425.599731,130.199295 425.049103,129.483093 425.050201,128.767715 
	C425.077484,110.680847 425.162750,92.594070 425.591949,74.273834 
z"/>
<path fill="#5D5957" opacity="1.000000" stroke="none" 
	d="
M412.465424,130.629395 
	C412.181976,118.087242 412.228394,105.297867 412.627441,92.273331 
	C412.918427,104.819504 412.856873,117.600838 412.465424,130.629395 
z"/>
<path fill="#949190" opacity="1.000000" stroke="none" 
	d="
M419.301086,162.025787 
	C418.963348,156.374832 418.963348,150.731873 418.963348,145.088928 
	C419.564789,145.038223 420.166229,144.987518 420.767639,144.936829 
	C421.434052,150.257645 421.157593,155.677963 420.979675,161.509537 
	C420.536987,161.964951 420.087921,161.999374 419.301086,162.025787 
z"/>
<path fill="#52504F" opacity="1.000000" stroke="none" 
	d="
M220.009644,121.446381 
	C220.505081,123.666367 221.013306,126.341690 221.698746,129.949860 
	C228.804031,129.949860 236.323349,129.949860 244.593353,129.984406 
	C245.541840,129.999573 245.739639,129.980194 245.937439,129.960831 
	C245.578384,130.482391 245.224121,131.455353 244.859558,131.459229 
	C236.717972,131.545761 228.575241,131.525543 220.022430,131.525543 
	C220.022430,127.810204 220.022430,124.855957 220.009644,121.446381 
z"/>
<path fill="#949190" opacity="1.000000" stroke="none" 
	d="
M329.596069,92.264397 
	C330.078461,104.429749 330.173340,116.782555 330.400055,129.592865 
	C330.026733,129.218597 329.084473,128.388062 329.082123,127.554893 
	C329.049255,115.854088 329.144501,104.152924 329.596069,92.264397 
z"/>
<path fill="#E0DEDC" opacity="1.000000" stroke="none" 
	d="
M255.783661,51.575859 
	C244.619858,51.997849 233.299744,52.010628 221.278259,52.023155 
	C220.414017,51.980629 220.251144,51.938347 220.088272,51.896065 
	C220.453629,51.373650 220.826935,50.389606 221.183167,50.395748 
	C232.665573,50.593781 244.146332,50.887375 255.783661,51.575859 
z"/>
<path fill="#878682" opacity="1.000000" stroke="none" 
	d="
M352.497070,130.656433 
	C352.103058,120.292831 352.025665,109.693954 352.055176,99.095375 
	C352.057922,98.102142 352.735382,97.110779 353.513977,96.113770 
	C353.618225,98.173203 353.070648,100.233757 353.038696,102.302284 
	C352.893890,111.674034 352.894653,121.048027 352.497070,130.656433 
z"/>
<path fill="#A39F9E" opacity="1.000000" stroke="none" 
	d="
M358.693726,96.381424 
	C358.983582,97.493988 359.934204,99.021156 359.956726,100.561859 
	C360.100067,110.382072 360.038849,120.205269 359.982361,130.489197 
	C359.609467,129.456360 359.045349,127.964401 359.030090,126.466858 
	C358.929291,116.579338 358.946503,106.690628 358.693726,96.381424 
z"/>
<path fill="#949190" opacity="1.000000" stroke="none" 
	d="
M461.596802,95.206314 
	C461.994263,106.355110 461.993744,117.683464 461.947266,129.474121 
	C461.601715,129.098724 461.041809,128.260880 461.042236,127.423340 
	C461.047668,116.744156 461.133453,106.065018 461.596802,95.206314 
z"/>
<path fill="#C2BFC0" opacity="1.000000" stroke="none" 
	d="
M515.581482,129.936157 
	C515.433411,126.191818 515.871094,122.466858 515.960571,118.733551 
	C516.130615,111.634895 516.101501,104.531471 516.555054,97.264641 
	C516.969849,106.903046 517.017456,116.707047 516.955872,126.510353 
	C516.948669,127.659431 516.339966,128.804733 515.581482,129.936157 
z"/>
<path fill="#878682" opacity="1.000000" stroke="none" 
	d="
M483.562317,129.932388 
	C483.442139,126.519272 483.906036,123.122406 484.018066,119.713974 
	C484.261658,112.302917 484.325775,104.885956 484.809570,97.213341 
	C485.088593,106.481430 485.061157,116.008217 484.912170,125.533096 
	C484.889099,127.007668 484.309174,128.473511 483.562317,129.932388 
z"/>
<path fill="#52504F" opacity="1.000000" stroke="none" 
	d="
M390.097351,97.628738 
	C390.371948,101.256363 390.809296,105.333160 390.882019,109.416458 
	C391.003601,116.240479 390.892242,123.068642 390.843597,130.342499 
	C390.571320,124.040947 390.283203,117.293228 390.116394,110.542511 
	C390.013824,106.390991 390.096680,102.234879 390.097351,97.628738 
z"/>
<path fill="#E0DEDC" opacity="1.000000" stroke="none" 
	d="
M492.057007,96.601898 
	C492.388397,97.662506 492.973907,99.180298 492.986969,100.703003 
	C493.067963,110.141426 493.020355,119.580963 492.954956,129.481628 
	C492.590393,128.779312 492.028748,127.616791 492.022827,126.451447 
	C491.973053,116.655045 492.025085,106.858124 492.057007,96.601898 
z"/>
<path fill="#686463" opacity="1.000000" stroke="none" 
	d="
M261.313995,131.114120 
	C264.271729,130.683899 267.578705,130.179932 270.899506,130.060577 
	C275.969482,129.878372 281.048981,129.961868 286.595154,129.870026 
	C286.164795,130.197449 285.270782,130.906921 284.361572,130.927032 
	C276.799103,131.094208 269.233856,131.134201 261.313995,131.114120 
z"/>
<path fill="#FAF9F7" opacity="1.000000" stroke="none" 
	d="
M383.438354,127.741249 
	C383.061249,119.086800 383.091980,110.280739 383.523438,101.318214 
	C383.898163,109.971046 383.872192,118.780342 383.438354,127.741249 
z"/>
<path fill="#878682" opacity="1.000000" stroke="none" 
	d="
M245.984650,129.496918 
	C245.739639,129.980194 245.541840,129.999573 245.045898,130.002808 
	C244.912140,121.528351 245.076569,113.070015 245.583221,104.379059 
	C245.960922,112.441963 245.996384,120.737488 245.984650,129.496918 
z"/>
<path fill="#52504F" opacity="1.000000" stroke="none" 
	d="
M220.058655,52.242966 
	C220.251144,51.938347 220.414017,51.980629 220.818481,52.095993 
	C220.878357,52.691196 220.696655,53.213322 220.263336,53.858715 
	C220.017471,53.517944 220.023254,53.053902 220.058655,52.242966 
z"/>
<path fill="#000000" opacity="1.000000" stroke="none" 
	d="
M109.986725,121.950661 
	C109.983955,122.418381 109.981194,122.886093 109.513420,123.683548 
	C101.376549,124.007301 93.704689,124.001312 86.020126,123.527115 
	C86.014343,98.071976 86.021255,73.085052 86.493149,48.053288 
	C99.241463,47.975185 111.524811,47.941929 123.808151,47.908672 
	C135.644012,49.663361 143.859085,55.619831 147.165710,67.593185 
	C149.014999,74.289536 145.989532,85.471878 140.402496,89.597023 
	C137.805557,91.514442 137.662766,93.159836 138.831696,95.862564 
	C142.620651,104.623123 146.201157,113.473831 149.726196,123.039009 
	C141.374512,123.702042 133.158615,123.615883 124.942703,123.529724 
	C121.722206,116.824364 118.309029,110.201523 115.383011,103.370026 
	C114.321884,100.892548 114.170685,97.927132 114.053574,95.165298 
	C113.850433,90.374710 113.997154,85.569290 113.997154,80.973206 
	C116.539833,80.090210 118.974152,79.875816 120.411469,78.566750 
	C121.824669,77.279633 123.215363,74.620018 122.798576,73.042961 
	C122.364555,71.400696 119.939049,69.860817 118.053734,69.135834 
	C115.815247,68.275047 113.224098,68.331345 109.970139,68.180984 
	C109.104401,85.595970 109.043755,102.820183 109.045868,120.044395 
	C109.045944,120.679863 109.659218,121.315239 109.986725,121.950661 
z"/>
<path fill="#E0DEDC" opacity="1.000000" stroke="none" 
	d="
M86.028168,48.098129 
	C86.021255,73.085052 86.014343,98.071976 85.808212,123.473770 
	C85.609001,123.888634 85.172760,123.915192 85.172760,123.915192 
	C85.179863,98.405243 85.186974,72.895294 85.618942,47.491562 
	C86.038582,47.764561 86.033371,47.931347 86.028168,48.098129 
z"/>
<path fill="#FAF9F7" opacity="1.000000" stroke="none" 
	d="
M110.011948,121.485710 
	C109.659218,121.315239 109.045944,120.679863 109.045868,120.044395 
	C109.043755,102.820183 109.104401,85.595970 109.556633,68.196777 
	C109.984901,85.688118 110.011032,103.354439 110.011948,121.485710 
z"/>
<path fill="#FAF9F7" opacity="1.000000" stroke="none" 
	d="
M86.493149,48.053288 
	C86.033371,47.931347 86.038582,47.764561 86.030289,47.347847 
	C98.480637,47.122677 110.944496,47.147442 123.608253,47.540440 
	C111.524811,47.941929 99.241463,47.975185 86.493149,48.053288 
z"/>
<path fill="#A39F9E" opacity="1.000000" stroke="none" 
	d="
M125.084442,123.969589 
	C133.158615,123.615883 141.374512,123.702042 149.801056,123.407394 
	C149.851929,123.675850 149.685410,124.894577 149.533356,124.892776 
	C141.430206,124.796738 133.328262,124.597763 125.084442,123.969589 
z"/>
<path fill="#A39F9E" opacity="1.000000" stroke="none" 
	d="
M85.352951,124.297943 
	C85.172760,123.915192 85.609001,123.888634 85.820908,123.941978 
	C93.704689,124.001312 101.376549,124.007301 109.515411,124.034348 
	C105.305008,124.365990 100.631462,124.801109 95.948936,124.946007 
	C92.483055,125.053253 89.005501,124.782852 85.352951,124.297943 
z"/>
</svg>